<?xml version="1.0" encoding="UTF-8"?>
<svg version="1.1" xmlns="http://www.w3.org/2000/svg" width="512" height="512">
<path d="M0 0 C1.07749512 0.3292749 2.15499023 0.6585498 3.26513672 0.99780273 C9.5399674 2.92380282 15.79502857 4.91147272 22.05078125 6.8984375 C27.84814904 8.73946324 33.6505804 10.56393399 39.45501709 12.38253784 C42.96174876 13.48794231 46.46145806 14.61387242 49.96142578 15.74047852 C52.16408187 16.43342834 54.36703239 17.12544313 56.5703125 17.81640625 C57.57570068 18.14620483 58.58108887 18.47600342 59.61694336 18.8157959 C70.98692132 22.32913157 79.70086879 19.30895472 90.70219803 15.81859016 C93.02323789 15.08286097 95.34752405 14.3583417 97.67294312 13.63658142 C104.27880532 11.58399968 110.87821116 9.51099356 117.47607422 7.43286133 C121.52928322 6.15705972 125.5861254 4.89337955 129.64518356 3.63632011 C131.17494516 3.15983919 132.70329076 2.67878306 134.23003006 2.19270515 C146.78837155 -1.80533128 159.70669001 -5.31693558 173 -3.5 C173.75224854 -3.40485107 174.50449707 -3.30970215 175.27954102 -3.21166992 C192.66365034 -0.720299 207.29698736 8.6840838 217.87890625 22.56640625 C226.72947436 35.69889068 229.97252734 51.15561689 233.83984375 66.2734375 C234.40057609 68.44195706 234.96199601 70.61029892 235.52406311 72.7784729 C236.99651378 78.4658278 238.4598733 84.15548229 239.92120361 89.84570312 C241.39198883 95.56648654 242.87105857 101.28512591 244.34960938 107.00390625 C246.02208513 113.47479638 247.6937705 119.94588198 249.35935974 126.41854858 C249.6134942 127.40601389 249.86762865 128.39347919 250.12946415 129.41086769 C250.62859942 131.3507823 251.12748305 133.29076167 251.62609768 135.23081017 C252.93309571 140.30905751 254.25280619 145.38366602 255.58865356 150.45440674 C256.00731485 152.04652198 256.00731485 152.04652198 256.43443394 153.67080116 C256.97151301 155.7106286 257.51063884 157.74991853 258.05206966 159.7885952 C258.29125401 160.69750826 258.53043837 161.60642132 258.77687073 162.5428772 C258.98942788 163.34536203 259.20198503 164.14784687 259.42098331 164.97464943 C259.875 166.9375 259.875 166.9375 259.875 168.9375 C260.88812256 169.04296143 261.90124512 169.14842285 262.94506836 169.25708008 C266.74258301 169.65510582 270.538557 170.06648485 274.33422852 170.48168945 C275.96991207 170.65877705 277.60598005 170.83235355 279.24243164 171.00219727 C301.99323601 173.36961389 301.99323601 173.36961389 306.875 179 C310.63191847 184.51797401 310.48646142 189.35783063 309.875 195.9375 C307.56225406 200.91879894 304.57301575 203.21580275 299.875 205.9375 C287.23375059 208.17186785 272.72353423 204.69528175 260.16113281 203.17391968 C253.24117575 202.33680136 246.31639684 201.54128444 239.390625 200.75390625 C238.69152512 200.67438532 237.99242523 200.59486439 237.2721405 200.51293373 C202.94129147 196.62581896 168.39495371 194.32192379 133.875 192.9375 C132.79158325 192.8936618 132.79158325 192.8936618 131.6862793 192.84893799 C44.31087072 189.37339058 -43.64492578 193.25878013 -130.36767578 204.41357422 C-137.71069363 205.34344509 -145.02848551 206.15864507 -152.43359375 206.32421875 C-154.16113892 206.36421997 -154.16113892 206.36421997 -155.92358398 206.4050293 C-160.9813976 205.66639488 -164.04758795 203.07161795 -167.5 199.4375 C-169.89803575 194.27249991 -169.87881535 189.5372712 -169.125 183.9375 C-166.93709556 179.22509043 -163.88342812 176.03722315 -159.125 173.9375 C-154.45590867 172.88436135 -149.74948609 172.31735292 -145 171.75 C-143.74445313 171.58564453 -142.48890625 171.42128906 -141.1953125 171.25195312 C-133.51883624 170.26850414 -125.84133405 169.52081365 -118.125 168.9375 C-117.89883499 167.882211 -117.67266998 166.826922 -117.43965149 165.73965454 C-114.83150277 153.71159109 -111.84561162 141.80398428 -108.73046875 129.8984375 C-108.21468675 127.9190437 -107.69909133 125.93960128 -107.18367004 123.96011353 C-106.10918828 119.83662124 -105.03237525 115.713747 -103.95385742 111.59130859 C-102.59118783 106.38194159 -101.23460145 101.17101277 -99.8795948 95.95964813 C-90.32311311 59.22219343 -90.32311311 59.22219343 -86.03515625 44.4296875 C-85.77107468 43.51496674 -85.5069931 42.60024597 -85.23490906 41.6578064 C-80.47508482 25.60855584 -69.93541813 12.67442865 -55.3515625 4.35546875 C-37.59098108 -5.0270492 -19.0932832 -6.12656956 0 0 Z " fill="#000000" transform="translate(185.125,52.0625)"/>
<path d="M0 0 C25.31557557 -0.75695455 46.69548892 8.1653793 65.52734375 24.9375 C75.6775763 34.54397009 83.77271241 48.66244802 87.52734375 62.15625 C87.52734375 63.47625 87.52734375 64.79625 87.52734375 66.15625 C88.67589844 65.95128906 89.82445312 65.74632812 91.0078125 65.53515625 C118.05088376 60.7967653 144.36047808 61.53485736 171.52734375 65.15625 C171.63038818 64.59719971 171.73343262 64.03814941 171.83959961 63.4621582 C172.93675987 57.99478686 174.540237 53.29357249 177.08984375 48.34375 C177.43917969 47.65796875 177.78851563 46.9721875 178.1484375 46.265625 C188.39831444 26.74724231 205.31379477 11.37815283 226.4453125 4.53515625 C249.71121469 -2.45832712 274.13965023 -1.56964808 295.90234375 9.94140625 C317.11804918 22.52572209 331.76774835 40.36666618 338.52734375 64.15625 C344.34942162 87.36109989 340.58489406 111.643741 328.52734375 132.15625 C325.52682243 136.77555197 322.12820701 140.99498749 318.52734375 145.15625 C317.955 145.82914063 317.38265625 146.50203125 316.79296875 147.1953125 C302.81943343 162.34483842 281.20493745 171.54860639 260.828125 172.5 C236.12973835 173.12706797 214.00421381 166.65302655 195.73046875 149.29296875 C195.0034375 148.58785156 194.27640625 147.88273438 193.52734375 147.15625 C192.9034375 146.60582031 192.27953125 146.05539062 191.63671875 145.48828125 C178.51305637 133.517373 173.09327295 115.72960152 168.52734375 99.15625 C146.26791467 95.95361786 124.85714649 95.08650318 102.52636719 97.91259766 C99.63623531 98.26486336 96.73999967 98.52665616 93.83984375 98.78125 C92.56560547 98.89339844 92.56560547 98.89339844 91.265625 99.0078125 C90.69199219 99.05679688 90.11835938 99.10578125 89.52734375 99.15625 C89.36878906 100.02765625 89.21023437 100.8990625 89.046875 101.796875 C85.33736639 120.733814 77.03963215 135.60541013 63.52734375 149.15625 C62.81964844 149.88714844 62.11195313 150.61804688 61.3828125 151.37109375 C44.32417593 167.84262619 21.45311422 172.74202895 -1.5 172.42578125 C-21.62221938 171.77852875 -39.42209232 163.17994716 -54.47265625 150.15625 C-55.14554688 149.58390625 -55.8184375 149.0115625 -56.51171875 148.421875 C-68.6668168 137.21032337 -77.16678446 120.20244307 -80.47265625 104.15625 C-80.65441406 103.29773438 -80.83617187 102.43921875 -81.0234375 101.5546875 C-84.34824185 76.40181978 -79.27535736 53.59703746 -64.09375 33.2421875 C-63.55878906 32.55382812 -63.02382813 31.86546875 -62.47265625 31.15625 C-62.05113281 30.57101562 -61.62960938 29.98578125 -61.1953125 29.3828125 C-49.26891588 13.94012265 -30.11018021 5.03626401 -11.47265625 1.15625 C-10.76238281 1.00542969 -10.05210938 0.85460937 -9.3203125 0.69921875 C-6.22539433 0.19130001 -3.13143672 0.14089704 0 0 Z " fill="#000000" transform="translate(126.47265625,283.84375)"/>
</svg>
