<?xml version="1.0" encoding="UTF-8"?>
<svg version="1.1" xmlns="http://www.w3.org/2000/svg" width="512" height="512">
<path d="M0 0 C20.99239746 -0.46840735 41.98392695 -0.8204585 62.98050022 -1.03624344 C72.73121466 -1.13912915 82.47867228 -1.27921963 92.22729492 -1.50878906 C100.73031979 -1.70892956 109.23098604 -1.83734147 117.73630089 -1.8817699 C122.23621165 -1.90772574 126.72937951 -1.96809998 131.22711372 -2.11460114 C158.52497704 -2.97003278 158.52497704 -2.97003278 165.95969772 1.96432495 C170.73807853 6.55935806 173.95406131 11.75034561 176.83276939 17.68347931 C178.37680197 20.74781242 180.26688712 23.19465554 182.4375 25.84375 C183.03369141 26.62363281 183.62988281 27.40351562 184.24414062 28.20703125 C185.11329102 29.34205078 185.11329102 29.34205078 186 30.5 C191.2006205 37.30827061 196.36814856 44.13975234 201.5 51 C206.61515849 57.83612126 211.76025406 64.64826798 216.9375 71.4375 C217.59991699 72.30616699 218.26233398 73.17483398 218.94482422 74.06982422 C222.31788188 78.49056784 225.69485713 82.90829281 229.07421875 87.32421875 C236.08323578 96.49199617 243.01743566 105.70409051 249.83007812 115.01879883 C254.55705298 121.45733476 259.43422984 127.77065105 264.38330078 134.03979492 C266.814395 137.1301021 269.16629309 140.18981045 271.2734375 143.51171875 C271.84320313 144.33285156 272.41296875 145.15398437 273 146 C273.66 146 274.32 146 275 146 C276.35097374 144.48848454 277.62927345 142.91186687 278.875 141.3125 C282.42452073 136.86703915 286.10557065 132.64502418 290 128.5 C293.64950199 124.60486946 297.15704217 120.66658513 300.5 116.5 C304.31994011 111.73891522 308.38938819 107.28726975 312.55859375 102.8359375 C315.67568554 99.48883131 318.63581113 96.06985859 321.5 92.5 C325.31994011 87.73891522 329.38938819 83.28726975 333.55859375 78.8359375 C336.67568554 75.48883131 339.63581113 72.06985859 342.5 68.5 C346.31994011 63.73891522 350.38938819 59.28726975 354.55859375 54.8359375 C357.67568554 51.48883131 360.63581113 48.06985859 363.5 44.5 C367.31994011 39.73891522 371.38938819 35.28726975 375.55859375 30.8359375 C379.44944609 26.65797392 383.05491196 22.30370364 386.625 17.84765625 C389.96905917 13.83808531 393.5208931 10.03472656 397.10351562 6.23828125 C399.87435368 3.35531282 399.87435368 3.35531282 402 0 C428.4 0 454.8 0 482 0 C480.18929768 3.62140464 478.65071878 5.65787249 475.9375 8.5625 C472.72708915 12.05918953 469.65543761 15.60799393 466.6875 19.3125 C462.79679292 24.12665588 458.66999534 28.64924334 454.44213867 33.16333008 C451.32475274 36.51064243 448.36440833 39.92986788 445.5 43.5 C441.68005989 48.26108478 437.61061181 52.71273025 433.44140625 57.1640625 C430.32431446 60.51116869 427.36418887 63.93014141 424.5 67.5 C420.68005989 72.26108478 416.61061181 76.71273025 412.44140625 81.1640625 C409.32431446 84.51116869 406.36418887 87.93014141 403.5 91.5 C399.68005989 96.26108478 395.61061181 100.71273025 391.44140625 105.1640625 C388.32431446 108.51116869 385.36418887 111.93014141 382.5 115.5 C378.68005989 120.26108478 374.61061181 124.71273025 370.44140625 129.1640625 C367.32431446 132.51116869 364.36418887 135.93014141 361.5 139.5 C357.68005989 144.26108478 353.61061181 148.71273025 349.44140625 153.1640625 C346.32431446 156.51116869 343.36418887 159.93014141 340.5 163.5 C337.15696451 167.66668191 333.64870495 171.60404164 330 175.5 C323.59279473 182.34634737 317.58813236 189.46211429 312 197 C316.84101621 203.49503009 321.72494646 209.95528122 326.64501953 216.390625 C332.54281765 224.10584166 338.39099743 231.84964891 344.125 239.6875 C349.21011554 246.63627045 354.43574247 253.45693869 359.75048828 260.23120117 C364.54392479 266.36179643 369.15850055 272.61196616 373.75 278.89453125 C377.74126806 284.33797943 381.83358142 289.68967632 386 295 C391.38843796 301.86785285 396.59945326 308.84701976 401.75 315.89453125 C405.74126806 321.33797943 409.83358142 326.68967632 414 332 C419.38843796 338.86785285 424.59945326 345.84701976 429.75 352.89453125 C433.74126806 358.33797943 437.83358142 363.68967632 442 369 C447.38843796 375.86785285 452.59945326 382.84701976 457.75 389.89453125 C461.74126806 395.33797943 465.83358142 400.68967632 470 406 C475.38326507 412.86125972 480.59079254 419.83267263 485.73461914 426.87475586 C489.87018304 432.5172242 494.12092108 438.05756517 498.4375 443.5625 C512 460.88427264 512 460.88427264 512 464 C491.49425329 464.39795762 470.9892948 464.69730126 450.48048115 464.88080692 C440.95661802 464.96829685 431.43516025 465.08745559 421.9128418 465.2824707 C413.60834112 465.45246339 405.30558254 465.56171308 396.9993903 465.59950441 C392.60427882 465.62158451 388.21414842 465.67304938 383.82064247 465.79741096 C354.96923215 466.58256535 354.96923215 466.58256535 348.11288452 460.40109253 C345.15817479 456.97291227 343.0762559 453.33576046 341.16153526 449.25181389 C339.12168052 445.29724325 336.27722842 441.9556118 333.5 438.5 C332.41328653 437.08592455 331.32954614 435.66955475 330.25 434.25 C329.71375 433.54875 329.1775 432.8475 328.625 432.125 C323.75 425.74999999 323.75 425.74999999 322.12426758 423.62402344 C321.04339983 422.21059349 319.96250799 420.79718196 318.8815918 419.38378906 C316.13533495 415.79275299 313.38952697 412.2013752 310.64453125 408.609375 C305.77129775 402.23318164 300.8957448 395.85893186 296 389.5 C290.54091682 382.40936531 285.106922 375.29963842 279.67333984 368.18945312 C276.94966736 364.62571008 274.22478337 361.06289369 271.5 357.5 C270.41666062 356.08333796 269.33332729 354.66667128 268.25 353.25 C267.71375 352.54875 267.1775 351.8475 266.625 351.125 C265 349 263.375 346.875 261.75 344.75 C261.21334717 344.0482666 260.67669434 343.3465332 260.1237793 342.62353516 C259.04434568 341.21188073 257.96508038 339.8000976 256.88598633 338.38818359 C254.11937831 334.76873658 251.34956334 331.15181592 248.57421875 327.5390625 C247.44511969 326.06785629 246.31621063 324.59650423 245.1875 323.125 C244.64633545 322.41988281 244.1051709 321.71476562 243.54760742 320.98828125 C239.75631306 316.03200537 236.07837051 311.01078805 232.48828125 305.90625 C231.1311737 303.88650627 231.1311737 303.88650627 229 303 C228.66162109 303.81791016 228.66162109 303.81791016 228.31640625 304.65234375 C226.60856918 307.69807099 224.32947338 310.0532291 221.9375 312.5625 C218.32951001 316.41569892 214.86407064 320.31356011 211.5625 324.4375 C207.71889943 329.21621628 203.63039836 333.69157687 199.44165039 338.16381836 C196.32446055 341.51099327 193.36426202 344.93005023 190.5 348.5 C186.68005989 353.26108478 182.61061181 357.71273025 178.44140625 362.1640625 C175.32431446 365.51116869 172.36418887 368.93014141 169.5 372.5 C165.68005989 377.26108478 161.61061181 381.71273025 157.44140625 386.1640625 C154.32431446 389.51116869 151.36418887 392.93014141 148.5 396.5 C144.68005989 401.26108478 140.61061181 405.71273025 136.44140625 410.1640625 C133.32431446 413.51116869 130.36418887 416.93014141 127.5 420.5 C123.6794151 425.26188842 119.60932197 429.71435594 115.43920898 434.16625977 C112.34219916 437.491548 109.40378316 440.88719939 106.5625 444.4375 C105.88180954 445.2603952 105.20111908 446.08329041 104.49980164 446.93112183 C103.21125831 448.51300034 101.92628378 450.09953252 100.71198463 451.73909378 C91.79085391 463.76442358 91.79085391 463.76442358 84.78915405 465.22967529 C80.00212389 465.78305501 75.25213128 465.58043534 70.44921875 465.3671875 C68.69668056 465.34101307 66.94403856 465.3211142 65.19136047 465.30715942 C60.61991983 465.25417921 56.05489794 465.1171381 51.48596191 464.96130371 C46.80727985 464.81701458 42.12754019 464.75392341 37.44726562 464.68359375 C28.2953854 464.53429838 19.14823011 464.29599344 10 464 C14.2571505 455.14396062 21.88704395 447.96029053 28.55615234 440.83813477 C31.67443784 437.49060725 34.63511481 434.07072646 37.5 430.5 C41.31994011 425.73891522 45.38938819 421.28726975 49.55859375 416.8359375 C52.67568554 413.48883131 55.63581113 410.06985859 58.5 406.5 C62.31994011 401.73891522 66.38938819 397.28726975 70.55859375 392.8359375 C73.67568554 389.48883131 76.63581113 386.06985859 79.5 382.5 C83.31994011 377.73891522 87.38938819 373.28726975 91.55859375 368.8359375 C94.67568554 365.48883131 97.63581113 362.06985859 100.5 358.5 C104.31994011 353.73891522 108.38938819 349.28726975 112.55859375 344.8359375 C115.67568554 341.48883131 118.63581113 338.06985859 121.5 334.5 C125.31994011 329.73891522 129.38938819 325.28726975 133.55859375 320.8359375 C136.67568554 317.48883131 139.63581113 314.06985859 142.5 310.5 C146.31994011 305.73891522 150.38938819 301.28726975 154.55859375 296.8359375 C157.67568554 293.48883131 160.63581113 290.06985859 163.5 286.5 C167.3130805 281.74746488 171.37391824 277.30257248 175.53662109 272.86010742 C179.65177519 268.44250472 183.48696373 263.86154538 187.2578125 259.14453125 C189 257 189 257 191 255 C190.64024994 251.88016757 189.4246328 249.92573528 187.515625 247.48828125 C186.99935547 246.82183594 186.48308594 246.15539062 185.95117188 245.46875 C185.38978516 244.7571875 184.82839844 244.045625 184.25 243.3125 C183.05712049 241.77747676 181.86441698 240.24231673 180.671875 238.70703125 C180.06021484 237.92408691 179.44855469 237.14114258 178.81835938 236.33447266 C176.0203056 232.74223444 173.26099308 229.12074643 170.5 225.5 C169.41687847 224.08317139 168.33354443 222.66650522 167.25 221.25 C130.41666667 173.08333333 93.58333333 124.91666667 56.75 76.75 C56.2139917 76.04907227 55.6779834 75.34814453 55.12573242 74.62597656 C54.03993353 73.20607316 52.95415888 71.78615122 51.8684082 70.36621094 C49.19799415 66.87391567 46.52719105 63.38191954 43.85546875 59.890625 C37.21474036 51.21165324 30.58582278 42.52377826 23.96630859 33.82861328 C20.74019058 29.59194171 17.51053633 25.35811005 14.26953125 21.1328125 C13.68494141 20.37033203 13.10035156 19.60785156 12.49804688 18.82226562 C11.41571223 17.41134271 10.33245765 16.00112474 9.24804688 14.59179688 C0 2.53390749 0 2.53390749 0 0 Z M93 46 C93.40878891 46.54491592 93.81757782 47.08983185 94.23875427 47.65126038 C94.7767012 48.36841721 95.31464813 49.08557404 95.86889648 49.82446289 C96.40143539 50.53437881 96.9339743 51.24429474 97.48265076 51.97572327 C98.68927481 53.58546539 99.8938259 55.19676131 101.09765625 56.80859375 C107.10813325 64.85044468 113.20434428 72.8251732 119.31054688 80.79443359 C122.04266822 84.36119432 124.77119272 87.93070359 127.5 91.5 C128.5833152 92.91668053 129.66664855 94.33334718 130.75 95.75 C280.25 291.25 280.25 291.25 281.87573242 293.37597656 C282.95660017 294.78940651 284.03749201 296.20281804 285.1184082 297.61621094 C287.86466505 301.20724701 290.61047303 304.7986248 293.35546875 308.390625 C298.22870225 314.76681836 303.1042552 321.14106814 308 327.5 C313.45908318 334.59063469 318.893078 341.70036158 324.32666016 348.81054688 C327.05033264 352.37428992 329.77521663 355.93710631 332.5 359.5 C333.58333938 360.91666204 334.66667271 362.33332872 335.75 363.75 C336.28625 364.45125 336.8225 365.1525 337.375 365.875 C342.25000001 372.25000001 342.25000001 372.25000001 343.87573242 374.37597656 C344.95660017 375.78940651 346.03749201 377.20281804 347.1184082 378.61621094 C349.86466505 382.20724701 352.61047303 385.7986248 355.35546875 389.390625 C360.48156655 396.09789232 365.60951221 402.80375179 370.75 409.5 C371.54921875 410.5415625 372.3484375 411.583125 373.171875 412.65625 C374.79466283 414.83555022 374.79466283 414.83555022 376 416 C379.10251201 416.08874135 382.1826812 416.11518455 385.28515625 416.09765625 C386.21597519 416.0962413 387.14679413 416.09482635 388.1058197 416.09336853 C391.09141191 416.08775172 394.07693029 416.0751964 397.0625 416.0625 C399.08137913 416.05748716 401.10025943 416.05292388 403.11914062 416.04882812 C408.07945572 416.03777683 413.03971532 416.02050095 418 416 C414.86299784 411.18862294 411.74634375 406.49069896 408 402.125 C403.81567621 397.10098898 399.92248184 391.90151746 396.0625 386.625 C390.94797075 379.63573076 385.75472501 372.72885002 380.45214844 365.88085938 C371.54354331 354.34220875 362.75841883 342.71828085 354.14941406 330.95458984 C349.62968748 324.80124261 344.96187395 318.77525328 340.24951172 312.76879883 C335.45607521 306.63820357 330.84149945 300.38803384 326.25 294.10546875 C322.25873194 288.66202057 318.16641858 283.31032368 314 278 C308.61156204 271.13214715 303.40054674 264.15298024 298.25 257.10546875 C294.25873194 251.66202057 290.16641858 246.31032368 286 241 C280.61156204 234.13214715 275.40054674 227.15298024 270.25 220.10546875 C266.25873104 214.66201934 262.16639153 209.31034633 258 204 C252.5184888 197.01284095 247.21166519 189.91380416 241.96435547 182.74951172 C237.54653864 176.72295912 233.02715401 170.78923144 228.45214844 164.88085938 C219.54354331 153.34220875 210.75841883 141.71828085 202.14941406 129.95458984 C197.62968748 123.80124261 192.96187395 117.77525328 188.24951172 111.76879883 C183.45607521 105.63820357 178.84149945 99.38803384 174.25 93.10546875 C170.25872924 87.66201689 166.16633736 82.31039171 162 77 C154.0732161 66.89391192 146.12748926 56.69123388 139 46 C136.94581105 45.56314184 136.94581105 45.56314184 134.55029297 45.65942383 C133.62948944 45.65965042 132.70868591 45.65987701 131.75997925 45.66011047 C130.26617233 45.68333626 130.26617233 45.68333626 128.7421875 45.70703125 C127.72399933 45.71127609 126.70581116 45.71552094 125.6567688 45.71989441 C122.39591327 45.73672421 119.13566959 45.77438454 115.875 45.8125 C113.66797766 45.82754126 111.46094566 45.84123063 109.25390625 45.85351562 C103.83572777 45.8866417 98.41790758 45.93688347 93 46 Z " fill="#000000" transform="translate(0,24)"/>
</svg>
