<?xml version="1.0" encoding="UTF-8"?>
<svg version="1.1" xmlns="http://www.w3.org/2000/svg" width="512" height="512">
<path d="M0 0 C1.00019165 0.03158203 2.0003833 0.06316406 3.03088379 0.09570312 C107.70538695 3.45173607 107.70538695 3.45173607 128 14 C128.86882812 14.44085938 129.73765625 14.88171875 130.6328125 15.3359375 C139.99526533 20.51821262 148.34195432 27.87910669 154 37 C154.57492187 37.92554688 155.14984375 38.85109375 155.7421875 39.8046875 C161.73893756 50.53706852 163.9186285 61.97697157 166 74 C166.14920898 74.85013672 166.29841797 75.70027344 166.45214844 76.57617188 C167.59105761 83.35603119 168.32886327 90.15974499 169 97 C169.06680969 97.65141968 169.13361938 98.30283936 169.20245361 98.97399902 C174.69433461 152.72331495 174.81417265 209.27456096 169 263 C168.88401459 264.07368835 168.88401459 264.07368835 168.76568604 265.16906738 C167.77696348 274.15684955 166.54650377 283.09056299 165 292 C164.85481934 292.8549707 164.70963867 293.70994141 164.56005859 294.59082031 C161.18760348 313.59637475 152.65615022 329.35691905 137 340.9375 C100.8651881 364.39943948 41.3557919 358.69415035 0 360 C-0.95249634 360.03029297 -1.90499268 360.06058594 -2.88635254 360.09179688 C-57.8536363 361.80870479 -113.03484073 361.74809895 -168 360 C-169.00019165 359.96841797 -170.0003833 359.93683594 -171.03088379 359.90429688 C-275.70538695 356.54826393 -275.70538695 356.54826393 -296 346 C-297.30324219 345.33871094 -297.30324219 345.33871094 -298.6328125 344.6640625 C-307.99526533 339.48178738 -316.34195432 332.12089331 -322 323 C-322.86238281 321.61167969 -322.86238281 321.61167969 -323.7421875 320.1953125 C-329.73893756 309.46293148 -331.9186285 298.02302843 -334 286 C-334.14920898 285.14986328 -334.29841797 284.29972656 -334.45214844 283.42382812 C-335.59105761 276.64396881 -336.32886327 269.84025501 -337 263 C-337.06680969 262.34858032 -337.13361938 261.69716064 -337.20245361 261.02600098 C-342.69433461 207.27668505 -342.81417265 150.72543904 -337 97 C-336.92267639 96.28420776 -336.84535278 95.56841553 -336.76568604 94.83093262 C-335.77696348 85.84315045 -334.54650377 76.90943701 -333 68 C-332.85481934 67.1450293 -332.70963867 66.29005859 -332.56005859 65.40917969 C-329.18760348 46.40362525 -320.65615022 30.64308095 -305 19.0625 C-268.8651881 -4.39943948 -209.3557919 1.30584965 -168 0 C-167.04750366 -0.03029297 -166.09500732 -0.06058594 -165.11364746 -0.09179688 C-110.1463637 -1.80870479 -54.96515927 -1.74809895 0 0 Z M-136 105 C-136 154.5 -136 204 -136 255 C-127.33341423 250.66670711 -118.97044992 246.37601895 -110.6875 241.4375 C-102.42844126 236.56687342 -94.12731715 231.7893401 -85.75 227.125 C-73.91786146 220.53151115 -62.151764 213.82628283 -50.39944458 207.09208679 C-46.07732184 204.61571556 -41.75223008 202.14458566 -37.42578125 199.67578125 C-36.16967444 198.95882739 -34.91357089 198.24186781 -33.6574707 197.52490234 C-31.30077302 196.17976112 -28.94380229 194.83510242 -26.58666992 193.49072266 C-19.366773 189.36798978 -12.17411437 185.20186586 -5 181 C-6.19798826 177.40603521 -6.82372395 177.26380709 -10.06640625 175.57421875 C-10.93177002 175.1148291 -11.79713379 174.65543945 -12.6887207 174.18212891 C-14.11124146 173.4422876 -14.11124146 173.4422876 -15.5625 172.6875 C-23.74968957 168.33108753 -31.82375048 163.83556877 -39.8125 159.125 C-47.98762629 154.31567313 -56.21129945 149.61085162 -64.5 145 C-72.6819743 140.44740864 -80.80296075 135.80722545 -88.875 131.0625 C-97.68895558 125.88723908 -106.56615981 120.83934791 -115.5 115.875 C-116.62776855 115.24730713 -117.75553711 114.61961426 -118.91748047 113.97290039 C-124.56408955 110.84653647 -130.21921046 107.89039477 -136 105 Z " fill="#000000" transform="translate(340,76)"/>
</svg>
